PathFileType	4	(X/Y/Z)	C249e_D251_DD_1_S001_1.trc
DataRate	CameraRate	NumFrames	NumMarkers	Units	OrigDataRate	OrigDataStartFrame	OrigNumFrames
50.0	50.0	5	54	mm	50.0	275	314
Frame#	Time		Q_WaistRFront		Q_WaistLFront		Q_WaistL		Q_WaistR		Q_WaistBack		Q_LThighFrontLow		Q_RThighFrontLow		Q_RKneeIn		Q_RKneeOut		Q_RShinFrontHigh		Q_LKneeIn		Q_LKneeOut		Q_LShinFrontHigh		Q_RForefoot5		Q_RForefoot2		Q_RHeelBack		Q_RAnkleOut		Q_LForefoot5		Q_LForefoot2		Q_LHeelBack		Q_LAnkleOut		Q_SpineThoracic2		Q_Chest		Q_SpineThoracic12		Q_HeadL		Q_HeadR		Q_HeadFront		Q_LShoulderTop		Q_LArm		Q_LElbowOut		Q_LElbowIn		Q_LWristOut		Q_LWristIn		Q_LHand2		Q_RShoulderTop		Q_RArm		Q_RElbowOut		Q_RElbowIn		Q_RWristOut		Q_RWristIn		Q_RHand2		RHipAngles		LHipAngles		RKneeAngles		LKneeAngles		RAnkleAngles		LAnkleAngles		RShoulderAngles		LShoulderAngles		RElbowAngles		LElbowAngles		RWristAngles		LWristAngles		Neck
			X1	Y1	Z1	X2	Y2	Z2	X3	Y3	Z3	X4	Y4	Z4	X5	Y5	Z5	X6	Y6	Z6	X7	Y7	Z7	X8	Y8	Z8	X9	Y9	Z9	X10	Y10	Z10	X11	Y11	Z11	X12	Y12	Z12	X13	Y13	Z13	X14	Y14	Z14	X15	Y15	Z15	X16	Y16	Z16	X17	Y17	Z17	X18	Y18	Z18	X19	Y19	Z19	X20	Y20	Z20	X21	Y21	Z21	X22	Y22	Z22	X23	Y23	Z23	X24	Y24	Z24	X25	Y25	Z25	X26	Y26	Z26	X27	Y27	Z27	X28	Y28	Z28	X29	Y29	Z29	X30	Y30	Z30	X31	Y31	Z31	X32	Y32	Z32	X33	Y33	Z33	X34	Y34	Z34	X35	Y35	Z35	X36	Y36	Z36	X37	Y37	Z37	X38	Y38	Z38	X39	Y39	Z39	X40	Y40	Z40	X41	Y41	Z41	X42	Y42	Z42	X43	Y43	Z43	X44	Y44	Z44	X45	Y45	Z45	X46	Y46	Z46	X47	Y47	Z47	X48	Y48	Z48	X49	Y49	Z49	X50	Y50	Z50	X51	Y51	Z51	X52	Y52	Z52	X53	Y53	Z53	X54	Y54	Z54

275	5.48000	94.11142	843.57220	210.34837	-162.37680	843.98462	209.46999	-162.59267	850.76007	275.68710	93.89555	850.34766	276.56555	-34.34856	850.55389	276.12631	-93.23086	473.69131	256.76270	30.63603	474.05701	237.19214	-27.18257	421.33557	247.70923	112.65002	419.81696	254.38304	40.46955	219.59880	252.75430	-34.86750	422.33710	271.83624	-174.79437	419.61304	275.44778	-101.24416	220.38806	261.31415	113.05901	32.83112	200.91466	64.95934	45.12496	194.97473	43.70121	30.05185	335.91937	103.50614	54.87166	327.25485	-172.39020	34.64046	196.01686	-124.02788	46.47966	191.44313	-105.62750	25.63639	332.05420	-164.92310	51.61170	323.27682	-33.28281	1311.59448	369.33301	-34.25245	735.85620	102.51616	-33.28281	1311.59448	369.33301	-98.32825	1480.44714	232.39261	41.38639	1478.28198	241.06032	-24.12111	1480.39636	166.86935	-177.88945	1307.70349	268.55026	-226.73734	1108.31116	265.32443	-263.15921	1027.19470	207.52696	-184.92274	999.95032	263.53406	-260.32663	789.81519	205.06946	-229.61844	799.21906	166.74751	-257.67029	698.63202	156.40732	113.74979	1306.44019	261.93640	149.36554	1104.17517	272.66260	207.63226	1024.64929	233.57820	111.38319	998.81024	241.85191	202.48415	787.46002	224.75417	195.48174	798.05872	176.39474	208.40054	691.74695	182.15694	-7.32990	-5.35877	2.80335	-3.59169	-6.61842	1.45549	-7.73672	4.93005	0.07384	0.02508	5.34661	-0.00599	-12.35804	5.95350	-13.07683	-10.74100	5.95665	-11.86615	0.11441	-7.40073	75.60567	1.93178	36.08601	78.58568	-7.75013	36.08601	-21.58325	-8.66534	-0.00000	-21.58325	-4.17206	-22.74871	-21.58325	-5.40337	-3.91634	-0.00000	-8.97978	-0.31464	1.28420
276	5.50000	94.16483	843.54492	210.59691	-162.32359	844.01648	209.79678	-162.51767	850.81281	276.01184	93.97076	850.34125	276.81198	-34.27345	850.57703	276.41193	-93.30154	473.72260	256.97708	30.90804	474.01205	237.71780	-26.85551	421.26300	248.31224	112.98287	419.83997	254.88525	40.93492	219.57312	253.37550	-34.95615	422.36563	272.00198	-174.88144	419.64352	275.67609	-101.34225	220.42183	261.43881	113.60136	32.86668	201.53204	65.49105	45.13651	195.62866	44.34762	30.05318	336.58945	104.13356	54.90280	327.87939	-172.51982	34.55604	196.14098	-124.15665	46.38034	191.53783	-105.70639	25.66005	332.16055	-164.99960	51.64061	323.38266	-32.99834	1311.60986	369.47629	-34.30871	735.79169	102.83316	-32.99834	1311.60986	369.47629	-98.08752	1480.49304	232.81909	41.66589	1478.16016	240.79041	-24.20706	1480.41040	166.92773	-177.61234	1307.87170	268.76511	-226.98831	1108.63623	265.83069	-263.63571	1027.52051	208.17490	-185.49788	1000.14746	264.25693	-260.93079	790.14343	205.36024	-230.16029	799.58856	167.09843	-258.18567	698.90106	157.08047	113.93256	1306.60083	262.35385	149.08688	1104.12573	272.86942	207.58698	1024.63635	234.06013	111.18540	999.00842	241.12715	201.93236	787.50732	224.01279	195.50027	798.36053	175.63062	206.53995	691.65698	182.04469	-7.30962	-5.29890	2.76726	-3.63212	-6.60802	1.45354	-7.71337	4.91829	0.08537	0.02375	5.32413	0.00454	-12.37542	5.95234	-13.08759	-10.67057	5.95213	-11.85329	0.00849	-6.67184	75.62666	1.86177	36.16534	78.45254	-7.79432	36.16534	-21.69424	-8.89651	-0.00000	-21.69424	-4.53997	-23.47059	-21.69424	-5.52562	-3.91136	-0.00000	-8.92096	-0.38274	1.17829
277	5.52000	93.97472	843.51642	210.40294	-162.51399	844.25989	209.99156	-162.60049	851.05176	276.20734	93.88821	850.30823	276.61874	-34.35615	850.67999	276.41302	-93.51241	473.92438	257.00262	30.60393	474.02127	237.65500	-27.14886	421.22662	248.33669	112.70028	419.89197	254.69608	40.77507	219.57994	253.33231	-35.14792	422.59122	271.99765	-175.07031	419.81570	275.74152	-101.46442	220.62695	261.38855	113.56766	33.00470	201.42673	65.42139	45.16114	195.58221	44.49310	30.05839	336.57306	104.20979	55.04541	327.78149	-172.60379	34.60814	196.08861	-124.24609	46.44192	191.45235	-105.72443	25.85204	332.08487	-165.02904	51.80813	323.31152	-32.56359	1311.62415	369.44147	-34.68896	735.78326	102.85278	-32.56359	1311.62415	369.44147	-98.34663	1480.05847	232.58044	41.39798	1478.55786	240.89882	-24.30442	1480.32898	166.87138	-177.29927	1307.96533	268.90515	-226.65399	1108.70105	266.14142	-263.28424	1027.50891	208.58237	-185.10777	1000.23236	264.65759	-260.32605	790.13416	205.82217	-229.57210	799.60333	167.55302	-258.08224	698.89697	157.80273	114.23229	1306.54260	261.94714	149.03928	1103.96472	272.39148	207.58589	1024.45374	233.69675	111.11098	998.97150	240.27277	201.58601	787.35522	223.14259	195.39235	798.31689	174.75374	206.84459	691.47791	182.83229	-7.30306	-5.25131	2.74110	-3.63886	-6.66521	1.44550	-7.71315	4.96348	0.11792	0.02759	5.30131	-0.04817	-12.38825	5.95641	-12.98837	-10.59783	5.95020	-11.84633	-0.02315	-6.32882	75.62832	1.82183	36.19633	78.53239	-7.77319	36.19633	-21.63166	-9.01661	-0.00000	-21.63166	-4.13790	-24.41776	-21.63166	-5.75822	-3.90551	-0.00000	-8.96585	-0.02135	1.24993
278	5.54000	93.78603	843.53967	210.41547	-162.70164	844.42303	209.72978	-162.85533	851.19696	275.94727	93.63233	850.31360	276.63297	-34.61151	850.75531	276.29010	-93.55955	474.07449	256.92841	30.35700	474.05609	237.49815	-27.39671	421.21204	248.03711	112.44065	419.96930	254.66734	40.65157	219.60973	253.12892	-35.17416	422.81885	272.05154	-175.09955	419.88489	275.55542	-101.23953	220.77003	261.48532	113.75568	33.13913	201.36040	65.59483	45.18458	195.40732	44.39062	30.06372	336.35501	104.06943	55.18494	327.68958	-172.03015	34.39183	196.25217	-123.68068	46.28217	191.67522	-105.38948	26.07150	332.39288	-164.71426	51.92177	323.44519	-32.73111	1311.60474	369.39053	-34.77826	735.80139	102.72025	-32.73111	1311.60474	369.39053	-98.42316	1480.06470	232.74425	41.33363	1478.54138	240.85120	-24.48034	1480.32959	166.92337	-177.32222	1308.21692	268.67831	-226.81163	1108.93530	265.79599	-263.29620	1027.75049	208.13426	-185.26051	1000.46735	264.40204	-260.22650	790.37915	205.21016	-229.37277	799.88953	167.03163	-257.68130	699.07928	157.65825	114.15811	1306.53809	262.10623	148.70374	1103.90125	272.74167	207.69409	1024.44238	234.61803	111.13251	998.99371	239.93065	201.71989	787.36731	223.53453	196.14064	798.42444	175.09270	207.68571	691.53467	183.71378	-7.30685	-5.21683	2.72349	-3.59693	-6.73991	1.43409	-7.71203	4.99051	0.19009	0.00370	5.28074	-0.07459	-12.37995	5.96177	-12.89341	-10.49687	5.94755	-11.85903	0.02007	-5.67311	75.53813	1.83696	36.26991	78.56663	-7.80090	36.26991	-21.80499	-9.07280	-0.00000	-21.80499	-3.62797	-24.64255	-21.80499	-5.95833	-3.78241	-0.00000	-8.96772	-0.02222	1.21224
279	5.56000	93.81673	843.58246	210.47003	-162.67113	844.62952	210.27501	-162.69389	851.38312	276.49472	93.79395	850.33600	276.68979	-34.44998	850.85956	276.59225	-93.57443	474.23477	257.19498	30.41127	474.09833	237.70175	-27.30965	421.19238	248.30537	112.53684	420.07947	254.76358	40.93332	219.65311	253.28532	-35.17759	422.93558	272.19125	-175.09813	420.08121	275.94440	-101.38060	220.93312	261.60065	114.29243	33.37230	201.43839	66.07793	45.22057	195.52414	45.06301	30.07296	336.49728	104.63191	55.43149	327.76715	-172.39919	34.62915	196.36670	-124.05401	46.50517	191.70807	-105.50827	26.18938	332.37729	-164.84018	52.06739	323.55811	-32.32859	1311.62085	369.78784	-34.86757	735.87195	103.00421	-32.32859	1311.62085	369.78784	-99.02424	1479.64160	233.20876	40.75832	1478.96289	240.97873	-25.24381	1480.22351	167.20793	-177.10754	1308.49463	269.14890	-226.78163	1109.21814	266.33972	-263.04132	1027.93420	208.67564	-185.24969	1000.73859	265.32242	-259.94479	790.55908	206.11220	-228.92574	800.01562	168.05446	-257.72992	699.26794	158.73257	114.32427	1306.64746	262.20569	148.65685	1103.91638	272.64731	207.90192	1024.55310	234.72025	111.28394	999.15149	239.16116	201.86143	787.52429	222.72166	196.68025	798.76215	174.27721	207.34183	691.66583	183.49324	-7.28394	-5.17520	2.70167	-3.60356	-6.75869	1.42637	-7.68806	5.03076	0.25544	0.02007	5.29646	-0.07451	-12.37482	5.96100	-12.71232	-10.49487	5.95331	-11.87125	-0.02320	-5.07475	75.49983	1.79680	36.63171	78.61121	-7.85823	36.63171	-22.18224	-9.17338	-0.00000	-22.18224	-3.59744	-25.26983	-22.18224	-6.10877	-3.71795	-0.00000	-9.06985	-0.35777	1.21196
